<?xml version="1.0" encoding="utf-8"?>
<!-- Generator: Adobe Illustrator 27.5.0, SVG Export Plug-In . SVG Version: 6.00 Build 0)  -->
<svg version="1.1" id="Capa_1" xmlns="http://www.w3.org/2000/svg" xmlns:xlink="http://www.w3.org/1999/xlink" x="0px" y="0px"
	 viewBox="0 0 2122 2122" style="enable-background:new 0 0 2122 2122;" xml:space="preserve">
<g>
	<path style="fill:#EFCBBC;" d="M293.426,1580.772c-17.386,27.211-48.095,122.285-63.347,226.738c0,0-44.577,79.595-45.749,134.061
		h251.444l-39.202-445.448C379.051,1503.582,326.315,1529.303,293.426,1580.772z"/>
	<path style="fill:#CA8080;" d="M1936.99,1941.57c-1.174-54.465-45.749-134.061-45.749-134.061
		c-15.25-104.453-45.958-199.527-63.347-226.738c-32.886-51.466-85.627-77.192-103.146-84.645l-39.202,445.444H1936.99z"/>
	<path style="fill:#EFCBBC;" d="M864.922,971.771l3.036,123.866l0.005,0.204c30.48,9.807,61.597,17.337,93.096,22.631
		C930.29,1069.034,897.994,1020.321,864.922,971.771z"/>
	<path style="fill:#CA8080;" d="M863.878,954.01l0.624,0.609l0.397,16.18l0.023,0.972c33.071,48.55,65.367,97.262,96.137,146.701
		c-31.499-5.294-62.616-12.824-93.096-22.631l1.847,75.347l-0.278,0.531l-49.51,33.206c0.197,0.306,0.471,0.728,0.845,1.298
		c0.772,1.189,1.915,2.943,3.383,5.209c2.938,4.526,7.184,11.103,12.422,19.279c10.475,16.361,24.913,39.133,40.774,64.804
		c31.647,51.22,68.942,113.965,91.71,160.326c10.888,0.512,21.793,0.874,32.716,1.004c4.098,0.049,8.197,0.068,12.299,0.068
		c2.716,0,5.432-0.01,8.151-0.029c13.632-0.112,27.259-0.478,40.838-1.062c31.239-1.345,62.208-3.865,92.469-7.017
		c45.614-90.465,139.462-234.421,145.643-243.879l-49.515-33.206l-0.278-0.531l5.311-216.569l0.624-0.609h0.044l0.906-36.95
		c-44.726,49.423-133.89,129.257-133.89,129.257s-98.809,13.724-122.141,0c-19.016-11.186-99.114-74.344-139.233-123.328
		l0.76,31.021H863.878z"/>
	<path style="fill:#F0C9BD;" d="M751.617,695.696c18.443,0,36.862,7.62,52.965,20.448c-1.008-8.896-2.181-20.274-3.354-33.693
		c-0.174-0.17-0.354-0.327-0.526-0.499c-4.046-4.049-7.725-8.838-11.15-13.491c-1.649-2.241-3.24-4.433-4.792-6.485
		c-1.303-1.729-2.5-3.513-3.749-5.242c-0.576-0.795-1.119-1.614-1.69-2.414c-6.541-5.95-12.942-9.88-18.041-9.153
		c-13.313,1.905-27.671,21.924-28.015,60.55C736.943,699.603,742.651,695.696,751.617,695.696z"/>
	<path style="fill:#CA8080;" d="M804.582,716.144c-16.102-12.828-34.521-20.448-52.965-20.448c-8.967,0-14.675,3.907-18.353,10.022
		c-0.117,13.121,1.371,28.37,5.087,45.812c14.029,65.881,59.6,113.613,94.202,110.256c-14.97-52.044-25.094-122.879-25.094-122.879
		S806.248,730.824,804.582,716.144z"/>
	<path style="fill:#F0C9BD;" d="M1313.936,715.774c15.995-12.599,34.241-20.078,52.507-20.078c8.965,0,14.675,3.907,18.353,10.022
		c-0.341-38.626-14.704-58.646-28.014-60.55c-10.422-1.491-26.275,16.375-37.657,31.488c-1.115,11.011-2.397,21.413-3.893,30.685
		C1314.842,709.757,1314.409,712.612,1313.936,715.774z"/>
	<path style="fill:#CA8080;" d="M1366.443,695.696c-18.265,0-36.512,7.479-52.507,20.078
		c-4.945,33.267-14.232,104.526-24.336,146.173c34.012-0.56,76.624-47.104,90.11-110.417c3.712-17.442,5.203-32.692,5.086-45.812
		C1381.118,699.603,1375.408,695.696,1366.443,695.696z"/>
	<path style="fill:#EFCBBC;" d="M1002.334,1046.317c23.332,13.724,122.141,0,122.141,0s89.164-79.835,133.89-129.257
		c12.122-13.398,21.004-24.58,23.932-31.308c2.451-5.637,4.901-13.895,7.303-23.805c10.105-41.647,19.391-112.906,24.336-146.173
		c0.473-3.161,0.906-6.017,1.296-8.433c1.496-9.272,2.777-19.673,3.893-30.685c2.79-27.572,4.485-59.082,5.51-87.279l-30.255,4.823
		l-0.711-0.492l-2.05-10.491c-21.246-6.346-40.658-8.261-57.605-8.314c26.028,15.89,38.232,41.115,38.232,41.115
		c-58.592-9.344-159.225,44.58-155.824,10.188c0.581-5.888,2.005-11.381,3.91-16.496l-0.465,0.067l-0.336-0.639
		c0.025-0.058,3.805-28.18,22.29-44.122c16.77-14.382,48.151-14.997,54.183-15.021c0.653,0,1.008,0.01,1.013,0.01h0.019
		c40.914,2.29,75.297,17.807,93.519,27.765l-26.639-136.364l-94.957,8.863l-0.614-0.341l0.092-0.697
		c9.827-10.826,22.465-25.077,22.402-35.766c-0.005-3.396-1.208-6.421-4.19-9.043c-2.982-2.616-7.79-4.799-14.957-6.265
		c-7.352-1.501-14.802-2.144-22.305-2.149c-30.87-0.005-62.616,10.928-92.032,17.539c-32.039,7.196-64.867,10.787-97.698,10.787
		c-39.416,0-78.833-5.191-116.88-15.511c-0.12,2.042-1.215,7.212-2.849,14.225c-1.725,7.367-4.032,16.628-6.372,25.827
		c-4.682,18.397-9.506,36.565-10.046,38.792c-4.224,17.296-8.27,34.626-11.988,52.034c-3.683,17.242-4.404,34.743-6.327,52.438
		c-0.685,6.275-1.366,12.546-1.459,18.816c-0.009,0.526-0.012,1.047-0.012,1.573c0,6.918,0.651,13.842,1.111,20.799
		c0.585,8.818,0.858,17.656,1.128,26.48c0.268,8.701,0.536,17.398,0.804,26.1l-0.336,0.57l-0.661-0.049
		c-1.583-1.18-3.079-2.545-4.54-3.978c1.173,13.419,2.346,24.797,3.354,33.693c1.666,14.679,2.877,22.763,2.877,22.763
		s10.124,70.835,25.094,122.879c3.311,11.518,6.857,22.124,10.587,30.826c3.805,8.882,10.862,19.269,19.961,30.377
		C903.22,971.974,983.318,1035.131,1002.334,1046.317z M1033.02,942.79c0,0,23.082-13.608,52.224-3.396
		C1103.081,945.64,1046.733,968.271,1033.02,942.79z M1165.6,893.308c-2.933,1.686-50.324,25.759-110.75,28.273
		c-61.143,2.548-96.012-22.29-100.628-25.953c-2.979-2.363-5.34-8.068-5.34-8.068s4.497,0.501,7.53,1.998
		c3.033,1.5,52.37-9.93,105.125-9.93c30.041,0,95.196,6.943,99.064,6.539c3.869-0.405,8.297-2.198,8.297-2.198
		S1168.533,891.628,1165.6,893.308z M816.918,587.009l0.193-0.804c0.051-0.029,46.611-32.784,107.535-36.199h0.02
		c0.005,0,0.36-0.01,1.016-0.01c6.029,0.024,37.41,0.639,54.18,15.021c10.407,8.96,16.139,21.798,19.186,31.303
		c0.309,0.968,0.588,1.896,0.844,2.787c4.699,8.864,6.525,19.025,1.146,29.505c-24.03,46.81-116.477-49.373-175.285-44.004
		c-0.935,0.303-1.851,0.556-2.793,0.876c-1.766,0.604-3.508,1.159-5.271,1.818L816.918,587.009z M819.162,739.598
		c0-18.879,16.431-36.345,44.283-50.641c-4.034-4.584-5.803-8.19-6.095-8.828c-4.214-4.288-9.371-17.671-11.727-24.224
		c-5.074,0.853-7.97,1.511-7.97,1.511c0.718-9.004,7.695-16.141,16.648-17.335c44.75-5.954,95.89,7.133,110.733,14.748
		c2.078,1.067,4.037,2.202,5.939,3.362c27.233-3.922,56.867-6.1,87.917-6.1c32.251,0,62.998,2.338,91.086,6.558
		c2.129-1.326,4.327-2.617,6.675-3.82c14.84-7.615,65.983-20.701,110.733-14.748c8.95,1.193,15.927,8.331,16.648,17.335
		c0,0-2.894-0.658-7.97-1.511c-2.358,6.553-7.513,19.942-11.732,24.224c-0.321,0.706-2.417,4.979-7.342,10.193
		c26.256,14.037,41.633,30.996,41.633,49.276c0,41.496-79.157,76.224-185.335,85.223l-52.623,15.591l-51.218-15.177
		C900.775,816.919,819.162,781.742,819.162,739.598z"/>
	<path style="fill:#F1BFB5;" d="M1000.472,822.58c0,0,61.781-26.114,120.372,0l-7.561,2.242
		c106.177-8.999,185.335-43.727,185.335-85.223c0-18.28-15.377-35.24-41.633-49.276c-8.419,8.901-25.067,20.316-55.371,20.38
		c-21.345,0.044-35.138-3.63-39.844-5.115c-23.946-4.068-41.126-11.869-41.126-11.869s0.921-1.149,2.485-3.035l-3.932-1.939
		c0,0,10.144-17.252,30.777-30.095c-28.088-4.22-58.836-6.558-91.086-6.558c-31.05,0-60.685,2.178-87.917,6.1
		c21.133,12.887,31.51,30.553,31.51,30.553l-3.934,1.934c1.569,1.89,2.49,3.04,2.49,3.04s-17.179,7.8-41.126,11.869
		c-4.711,1.486-18.497,5.159-39.844,5.115c-31.883-0.063-48.66-12.692-56.623-21.744c-27.851,14.295-44.283,31.762-44.283,50.641
		c0,42.144,81.613,77.321,190.28,85.637L1000.472,822.58z"/>
	<path style="fill:#CA8080;" d="M1061.537,879.628c-52.755,0-102.093,11.43-105.125,9.93c-3.033-1.496-7.53-1.998-7.53-1.998
		s2.36,5.705,5.34,8.068c4.616,3.663,39.486,28.501,100.628,25.953c60.426-2.514,107.818-26.587,110.75-28.273
		c2.933-1.681,3.298-9.34,3.298-9.34s-4.429,1.793-8.297,2.198C1156.733,886.57,1091.578,879.628,1061.537,879.628z M1054.278,918.4
		c-45.562,1.242-84.877-22.324-84.877-22.324s51.532-11.352,85.152-11.883c33.62-0.531,93.606,9.043,93.606,9.043
		S1099.836,917.158,1054.278,918.4z"/>
	<path style="fill:#FFFFFF;" d="M1054.552,884.193c-33.62,0.531-85.152,11.883-85.152,11.883s39.315,23.566,84.877,22.324
		c45.559-1.242,93.881-25.164,93.881-25.164S1088.173,883.662,1054.552,884.193z"/>
	<path style="fill:#CA8080;" d="M1085.245,939.394c-29.142-10.212-52.224,3.396-52.224,3.396
		C1046.733,968.271,1103.081,945.64,1085.245,939.394z"/>
	<path style="fill:#CA8080;" d="M1000.472,822.58l8.97,2.656l51.218,15.177l52.623-15.591l7.561-2.242
		C1062.253,796.466,1000.472,822.58,1000.472,822.58z M1017.788,823.282c0,0,15.924-11.766,33.121,9.408L1017.788,823.282z
		 M1069.907,832.69c17.199-21.174,33.121-9.408,33.121-9.408L1069.907,832.69z"/>
	<path style="fill:#4C0D18;" d="M1017.788,823.282l33.121,9.408C1033.712,811.516,1017.788,823.282,1017.788,823.282z"/>
	<path style="fill:#4C0D18;" d="M1069.907,832.69l33.121-9.408C1103.028,823.282,1087.106,811.516,1069.907,832.69z"/>
	<path style="fill:#FFFFFF;" d="M1222.857,652.184c4.541,5.876,7.186,13.218,7.186,21.174c0,14.451-8.818,26.841-21.369,32.156
		c17.588-3.025,37.569-10.173,55.742-25.569l-0.088,0.185c4.219-4.283,9.374-17.671,11.732-24.224
		C1265.668,654.157,1246.038,651.603,1222.857,652.184z"/>
	<path style="fill:#FFFFFF;" d="M1187.188,707.467c-15.581-3.542-27.25-17.471-27.25-34.109c0-3.941,0.711-7.693,1.92-11.225
		l-0.034,0.009c-11.712,3.922-15.62,5.55-38.69,28.541h-0.004c-1.564,1.886-2.485,3.035-2.485,3.035s17.179,7.8,41.126,11.869
		c-1.194-0.375-1.832-0.619-1.832-0.619S1170.945,707.657,1187.188,707.467z"/>
	<path style="fill:#999999;" d="M1187.188,707.467c6.455-0.073,13.739-0.619,21.486-1.954c12.551-5.315,21.369-17.705,21.369-32.156
		c0-7.956-2.645-15.298-7.186-21.174c-19.011,0.473-40.39,3.05-60.998,9.949c-1.208,3.532-1.92,7.284-1.92,11.225
		C1159.939,689.996,1171.608,703.925,1187.188,707.467z M1194.998,657.927c1.993,0,3.879,0.41,5.623,1.096
		c1.72-2.528,4.623-4.195,7.912-4.195c5.276,0,9.559,4.283,9.559,9.559c0,4.653-3.328,8.526-7.732,9.379
		c-0.233,8.302-6.996,14.977-15.362,14.977c-8.506,0-15.406-6.899-15.406-15.406
		C1179.593,664.826,1186.492,657.927,1194.998,657.927z"/>
	<path style="fill:#4C0D18;" d="M1194.998,688.744c8.366,0,15.128-6.675,15.362-14.977c-0.589,0.117-1.203,0.185-1.827,0.185
		c-5.281,0-9.564-4.283-9.564-9.564c0-1.988,0.609-3.834,1.652-5.364c-1.744-0.687-3.63-1.096-5.623-1.096
		c-8.506,0-15.406,6.899-15.406,15.411C1179.593,681.845,1186.492,688.744,1194.998,688.744z"/>
	<path style="fill:#FFFFFF;" d="M1208.533,673.952c0.624,0,1.238-0.068,1.827-0.185c4.404-0.853,7.732-4.726,7.732-9.379
		c0-5.276-4.283-9.559-9.559-9.559c-3.289,0-6.192,1.666-7.912,4.195c-1.043,1.53-1.652,3.377-1.652,5.364
		C1198.969,669.669,1203.252,673.952,1208.533,673.952z"/>
	<path style="fill:#4C0D18;" d="M1119.198,688.744l3.932,1.939h0.004c23.07-22.991,26.977-24.618,38.69-28.541l0.034-0.009
		c20.609-6.899,41.988-9.476,60.998-9.949c23.181-0.58,42.811,1.973,53.203,3.722c5.077,0.853,7.97,1.511,7.97,1.511
		c-0.721-9.004-7.698-16.141-16.648-17.335c-44.75-5.954-95.893,7.133-110.733,14.748c-2.348,1.203-4.546,2.495-6.675,3.82
		C1129.342,671.492,1119.198,688.744,1119.198,688.744z"/>
	<path style="fill:#4C0D18;" d="M1208.674,705.513c-7.746,1.335-15.031,1.881-21.486,1.954c-16.244,0.19-27.25-2.5-27.25-2.5
		s0.638,0.244,1.832,0.619c4.706,1.486,18.499,5.159,39.844,5.115c30.304-0.063,46.952-11.478,55.371-20.38
		c4.926-5.213,7.021-9.486,7.342-10.193l0.088-0.185C1246.243,695.34,1226.262,702.488,1208.674,705.513z"/>
	<path style="fill:#CA8080;" d="M1233.015,574.893c-17.671,0.019-32.623,1.978-44.034,2.899
		c-36.273,2.904-63.961,27.698-67.868,31.377l-0.536,0.506l-0.246,0.035c-1.905,5.114-3.329,10.608-3.91,16.496
		c-3.401,34.392,97.233-19.532,155.824-10.188c0,0-12.205-25.224-38.232-41.115c-0.241,0-0.494-0.01-0.734-0.01H1233.015z"/>
	<path style="fill:#FFFFFF;" d="M913.006,705.513c-12.548-5.315-21.369-17.705-21.369-32.156c0-7.956,2.65-15.298,7.186-21.174
		c-23.179-0.58-42.806,1.973-53.201,3.722c2.356,6.553,7.513,19.937,11.727,24.224l-0.085-0.185
		C875.437,695.34,895.418,702.488,913.006,705.513z"/>
	<path style="fill:#FFFFFF;" d="M959.859,662.142l-0.034-0.009c1.206,3.532,1.917,7.284,1.917,11.225
		c0,16.638-11.668,30.567-27.247,34.109c16.241,0.19,27.247-2.5,27.247-2.5s-0.638,0.244-1.83,0.619
		c23.946-4.068,41.126-11.869,41.126-11.869s-0.921-1.149-2.49-3.04l-0.005,0.005C975.478,667.692,971.568,666.064,959.859,662.142z
		"/>
	<path style="fill:#999999;" d="M961.742,673.358c0-3.941-0.711-7.693-1.917-11.225c-20.611-6.899-41.988-9.476-61.001-9.949
		c-4.536,5.876-7.186,13.218-7.186,21.174c0,14.451,8.821,26.841,21.369,32.156c7.747,1.335,15.035,1.881,21.488,1.954
		C950.073,703.925,961.742,689.996,961.742,673.358z M941.501,677.328c-1.766,6.557-7.698,11.415-14.818,11.415
		c-8.509,0-15.406-6.899-15.406-15.406c0-8.512,6.896-15.411,15.406-15.411c4.044,0,7.691,1.594,10.441,4.136
		c1.754-2.046,4.326-3.372,7.235-3.372c5.281,0,9.562,4.278,9.562,9.559c0,5.281-4.281,9.559-9.562,9.559
		C943.357,677.811,942.409,677.616,941.501,677.328z"/>
	<path style="fill:#4C0D18;" d="M934.796,668.252c0-2.373,0.896-4.517,2.327-6.188c-2.75-2.543-6.398-4.136-10.441-4.136
		c-8.509,0-15.406,6.899-15.406,15.411c0,8.507,6.896,15.406,15.406,15.406c7.12,0,13.052-4.858,14.818-11.415
		C937.627,676.11,934.796,672.529,934.796,668.252z"/>
	<path style="fill:#4C0D18;" d="M898.823,652.184c19.013,0.473,40.39,3.05,61.001,9.949l0.034,0.009
		c11.71,3.922,15.62,5.55,38.684,28.541l0.005-0.005l3.934-1.934c0,0-10.377-17.666-31.51-30.553
		c-1.902-1.16-3.861-2.295-5.939-3.362c-14.843-7.615-65.983-20.701-110.733-14.748c-8.953,1.193-15.93,8.331-16.648,17.335
		c0,0,2.896-0.658,7.97-1.511C856.017,654.157,875.644,651.603,898.823,652.184z"/>
	<path style="fill:#4C0D18;" d="M920.068,710.702c21.347,0.044,35.133-3.63,39.844-5.115c1.191-0.375,1.83-0.619,1.83-0.619
		s-11.006,2.69-27.247,2.5c-6.453-0.073-13.742-0.619-21.488-1.954c-17.588-3.025-37.569-10.173-55.742-25.569l0.085,0.185
		c0.292,0.638,2.061,4.244,6.095,8.828C871.408,698.01,888.185,710.639,920.068,710.702z"/>
	<path style="fill:#CA8080;" d="M1001.813,609.777l-0.716-0.112c-0.005-0.005-1.805-1.779-5.152-4.521
		c-3.347-2.743-8.222-6.436-14.324-10.227c-12.205-7.581-29.318-15.552-48.923-17.125c-11.422-0.925-26.362-2.894-44.061-2.894
		c-18.301,0-39.564,2.166-62.883,9.711c58.808-5.369,151.255,90.813,175.285,44.004c5.379-10.479,3.553-20.641-1.146-29.505
		c1.698,5.922,2.258,10.006,2.262,10.031L1001.813,609.777z"/>
	<path style="fill:#1C110F;" d="M1724.748,1496.126l0.018-0.207l0.672-7.649l-0.273-0.57l-102.491-68.74
		c13.507-28.224,19.046-54.879,19.042-79.562c-0.048-107.009-103.383-176.755-107.904-179.781
		c-20.629-102.503-89.43-153.961-153.158-179.707c-63.659-25.725-122.29-25.9-123.195-25.9h-0.044l-0.624,0.609l-5.311,216.569
		l0.278,0.531l49.515,33.206c-6.18,9.459-100.029,153.415-145.643,243.879c-30.262,3.151-61.23,5.672-92.469,7.017
		c-13.578,0.585-27.206,0.95-40.838,1.062c-2.719,0.019-5.435,0.029-8.151,0.029c-4.102,0-8.202-0.02-12.299-0.068
		c-10.924-0.13-21.828-0.492-32.716-1.004c-22.768-46.36-60.063-109.106-91.71-160.326c-15.861-25.671-30.299-48.443-40.774-64.804
		c-5.237-8.175-9.484-14.753-12.422-19.279c-1.469-2.266-2.611-4.02-3.383-5.209c-0.374-0.57-0.648-0.992-0.845-1.298l49.51-33.206
		l0.278-0.531l-1.847-75.347l-0.005-0.204l-3.036-123.866l-0.023-0.972l-0.397-16.18l-0.624-0.609h-0.018
		c-0.197,0-14.236,0.021-35.955,3.011l0.674,0.414l-0.275,0.741c-44.494,26.09-77.651,71.498-93.863,116.896
		c-13.33,37.028-19.279,72.716-19.279,107.201c-0.033,167.408,140.364,306.637,258.23,430.581c3.802,3.998,7.581,7.98,11.331,11.947
		l0.114,0.687l-0.599,0.366c-129.766-6.466-235.035-42.826-314.031-83.244c64.228,137.039,134.813,270.56,216.085,398.625
		l0.02,0.638l-0.546,0.322h799.156l0.619-0.57l0.005-0.053L1724.748,1496.126z"/>
	<path style="fill:#856445;" d="M825.753,584.608c23.319-7.545,44.582-9.711,62.883-9.711c17.698,0,32.638,1.969,44.061,2.894
		c19.605,1.573,36.719,9.544,48.923,17.125c6.102,3.791,10.977,7.484,14.324,10.227c3.347,2.743,5.147,4.516,5.152,4.521
		l0.716,0.112l0.341-0.639c-0.004-0.025-0.564-4.109-2.262-10.031c-0.256-0.891-0.535-1.82-0.844-2.787
		c-3.048-9.506-8.78-22.343-19.186-31.303c-16.77-14.382-48.151-14.997-54.18-15.021c-0.656,0-1.011,0.01-1.016,0.01h-0.02
		c-60.923,3.416-107.484,36.17-107.535,36.199l-0.193,0.804l0.77,0.292c1.764-0.658,3.505-1.213,5.271-1.818
		C823.902,585.164,824.818,584.911,825.753,584.608z"/>
	<path style="fill:#2C1A17;" d="M886.292,1941.234c-81.272-128.065-151.857-261.586-216.085-398.625
		c78.996,40.418,184.265,76.778,314.031,83.244l0.599-0.366l-0.114-0.687c-3.75-3.967-7.529-7.949-11.331-11.947
		c-117.866-123.943-258.263-263.172-258.23-430.581c0-34.485,5.949-70.173,19.279-107.201
		c16.212-45.398,49.369-90.806,93.863-116.896l0.275-0.741l-0.674-0.414c-33.744,4.648-86.041,16.458-133.834,46.563
		c-47.74,30.061-90.971,78.429-106.59,156.03c-4.411,2.951-107.862,72.719-107.907,179.785
		c-0.003,24.692,5.535,51.348,19.049,79.582l-102.469,68.72l-0.273,0.57l0.673,7.644l0.018,0.209l39.202,445.448l0.005,0.053
		l0.621,0.57h449.366l0.546-0.322L886.292,1941.234z"/>
	<path style="fill:#CFA974;" d="M784.76,661.976c1.552,2.052,3.143,4.244,4.792,6.485l-0.122-0.399
		c0.624-14.076,1.498-28.187,2.458-42.302c2.881-42.343,6.539-84.713,6.539-126.22c0-36.443-2.819-72.224-11.447-106.743
		l0.134-0.565l0.541-0.205c60.658,6.997,121.283,15.084,181.369,15.084c68.417-0.005,136.113-10.478,202.406-44.944
		c28.848-18.567,41.338-45.618,42.268-74.193l0.38-0.555c-1.69,0.717-3.339,1.574-4.967,2.485c0.041-0.604,0.1-1.208,0.1-1.813
		c0-1.617-0.132-3.23-0.322-4.813c-3.089-25.768-17.89-49.272-37.822-65.798c-33.934-28.122-81.369-38.348-128.18-38.353
		c-29.586,0-58.933,4.088-84.492,10.363c-55.471,13.608-104.886,44.141-156.173,68.877c-58.721,28.317-120.913,49.428-184.74,62.69
		l-0.453,0.375l0.063,0.584c20.222,29.836,44.697,56.773,72.419,79.804c-16.54-1.274-32.842-5.565-47.839-12.651l-0.738,0.156
		l-0.046,0.755c17,25.433,36.649,49.092,58.516,70.489c-1.573,3.995-2.243,8.125-2.241,12.303
		c0.003,10.149,3.81,20.565,7.574,30.105c9.225,23.367,18.494,46.743,28.862,69.661c9.462,20.911,19.834,41.462,31.893,61.028
		c4.349,7.056,9.01,13.915,13.83,20.656c0.571,0.799,1.115,1.619,1.69,2.414C782.261,658.463,783.457,660.247,784.76,661.976z"/>
	<path style="fill:#856445;" d="M1171.429,362.168c-66.293,34.466-133.99,44.939-202.406,44.944
		c-60.085,0-120.711-8.088-181.369-15.084l-0.541,0.205l-0.134,0.565c8.628,34.519,11.447,70.3,11.447,106.743
		c0,41.507-3.658,83.877-6.539,126.22c-0.96,14.115-1.835,28.226-2.458,42.302l0.122,0.399c3.425,4.653,7.103,9.442,11.15,13.491
		c0.173,0.172,0.352,0.329,0.526,0.499c1.462,1.433,2.957,2.798,4.54,3.978l0.661,0.049l0.336-0.57
		c-0.268-8.701-0.536-17.398-0.804-26.1c-0.27-8.824-0.543-17.662-1.128-26.48c-0.46-6.958-1.111-13.881-1.111-20.799
		c0-0.526,0.003-1.048,0.012-1.573c0.093-6.271,0.775-12.541,1.459-18.816c1.922-17.696,2.643-35.196,6.327-52.438
		c3.717-17.408,7.763-34.738,11.988-52.034c0.541-2.227,5.364-20.395,10.046-38.792c2.341-9.199,4.648-18.46,6.372-25.827
		c1.634-7.013,2.729-12.183,2.849-14.225c38.047,10.32,77.464,15.511,116.88,15.511c32.83,0,65.659-3.591,97.698-10.787
		c29.415-6.611,61.162-17.544,92.032-17.539c7.503,0.005,14.952,0.648,22.305,2.149c7.167,1.466,11.975,3.649,14.957,6.265
		c2.982,2.621,4.185,5.647,4.19,9.043c0.063,10.69-12.575,24.94-22.402,35.766l-0.092,0.697l0.614,0.341l94.957-8.863
		l26.639,136.364c-18.221-9.958-52.605-25.474-93.519-27.765h-0.019c-0.005,0-0.36-0.01-1.013-0.01
		c-6.032,0.024-37.413,0.639-54.183,15.021c-18.484,15.941-22.265,44.063-22.29,44.122l0.336,0.639l0.465-0.067l0.246-0.035
		l0.536-0.506c3.907-3.678,31.596-28.472,67.868-31.377c11.41-0.921,26.363-2.879,44.034-2.899h0.263c0.24,0,0.493,0.01,0.734,0.01
		c16.948,0.053,36.359,1.968,57.605,8.314l2.05,10.491l0.711,0.492l30.255-4.823l0.122-0.019l1.554-0.248l0.502-0.448
		c0.01-0.034,16.746-60.365,16.746-137.125c0-5.232-0.078-10.543-0.244-15.918c-1.637-52.102-44.102-104.876-76.433-137.812
		c-9.344-9.51-21.646-14.212-33.949-14.207c-6.421,0-12.848,1.277-18.855,3.82l-0.38,0.555
		C1212.767,316.55,1200.277,343.601,1171.429,362.168z"/>
	<path style="fill:#FFFFFF;" d="M953.92,668.252c0-5.281-4.281-9.559-9.562-9.559c-2.909,0-5.481,1.326-7.235,3.372
		c-1.43,1.671-2.327,3.815-2.327,6.188c0,4.278,2.831,7.859,6.704,9.077c0.909,0.287,1.856,0.482,2.857,0.482
		C949.639,677.811,953.92,673.533,953.92,668.252z"/>
</g>
</svg>
