<?xml version="1.0" encoding="utf-8"?>
<!-- Generator: Adobe Illustrator 27.5.0, SVG Export Plug-In . SVG Version: 6.00 Build 0)  -->
<svg version="1.1" id="Capa_1" xmlns="http://www.w3.org/2000/svg" xmlns:xlink="http://www.w3.org/1999/xlink" x="0px" y="0px"
	 viewBox="0 0 2122 2122" style="enable-background:new 0 0 2122 2122;" xml:space="preserve">
<path style="fill:#B22F18;" d="M968.121,1177.967c17.747,11.205,37.386,18.574,57.734,22.336c1.507-2.031,3.04-4.042,4.556-6.066
	c-64.526-9.638-98.169-63.661-105.609-77.121c-31.03,7.753-114.431,29.53-186.899,56.856c-13.668,5.154-26.931,10.506-39.389,15.996
	c-1.697,0.35-3.433,0.753-5.234,1.248c-64.644,17.769-220.486,92.631-266.04,310.736c-24.023,115.166-45.401,274.535-61.894,420.576
	h140.464c11.534-138.638,26.396-289.93,43.129-399.258c12.472-81.378,33.11-138.511,56.742-179.982
	c-3.45,15.529-6.645,32.063-9.601,49.576c-1.253,7.424-2.465,15.018-3.636,22.776c-19.916,131.895-28.368,311.283-35.924,506.888
	h0.001h83.961h35.943c71.474-236.661,171.66-465.963,310.567-667.838c-49.051-17.888-94.535-57.088-105.978-109.179
	c-0.154-0.701,0.892-1.117,1.196-0.443c12.916,28.56,31.793,54.201,57.166,72.871c16.612,12.223,34.732,21.586,53.702,27.953
	c8.958-12.862,18.075-25.609,27.354-38.238c-2.785-0.613-5.551-1.297-8.294-2.053c-37.732-10.413-76.061-36.343-91.515-73.542
	l0.642-0.27C934.393,1149.814,949.122,1165.972,968.121,1177.967z"/>
<path style="fill:#C34417;" d="M1607.331,1922.529h148.644c-16.558-146.041-37.894-305.411-61.914-420.576
	c-45.554-218.105-166.864-271.378-242.297-306.194c-0.001,0-0.001,0-0.001,0c-91.252-51.644-207.813-73.427-246.954-79.604
	c-9.182,12.46-62.906,79.604-154.358,79.604c-6.997,0-13.653-0.568-20.04-1.522c-1.516,2.024-3.049,4.036-4.556,6.066
	c21.39,3.955,43.564,3.92,65.175,0.037c20.4-3.665,40.212-10.487,58.426-20.4c17.405-9.473,31.847-22.261,46.577-35.285
	c0.5-0.442,1.229,0.112,0.918,0.708c-10.693,20.484-31.333,35.198-51.497,45.474c-37.697,19.21-83.479,25.962-125.022,16.817
	c-9.279,12.629-18.396,25.377-27.354,38.238c33.563,11.265,69.817,13.055,105.297,4.01
	c58.936-15.026,105.007-55.034,141.417-102.233c2.342-3.036,6.866-0.151,5.01,3.237c-16.905,30.857-42.408,56.027-71.371,75.709
	c-50.572,34.368-114.389,49.33-173.958,32.201c-4.177-1.201-8.338-2.614-12.482-4.126
	c-138.907,201.875-239.092,431.177-310.567,667.838h21.074h707.115h76.184h83.996c-13.659-248.205-22.281-441.644-41.538-566.019
	c15.791,38.079,29.243,85.506,38.465,145.443C1579.416,1617.119,1595.133,1776.488,1607.331,1922.529z"/>
<path style="fill:#9D2E18;" d="M1523.255,1356.51c19.258,124.375,27.879,317.814,41.538,566.019h42.538
	c-12.198-146.041-27.915-305.411-45.611-420.576C1552.498,1442.016,1539.046,1394.589,1523.255,1356.51z"/>
<path style="fill:#7E1B12;" d="M640.48,1922.529h-83.961h-0.001c7.557-195.605,16.008-374.994,35.924-506.888
	c1.171-7.758,2.383-15.353,3.636-22.776c2.956-17.512,6.151-34.046,9.601-49.576c-23.632,41.471-44.27,98.604-56.742,179.982
	c-16.733,109.328-31.595,260.62-43.129,399.258c0,0,0,0,0,0h191.688c0,0,0,0,0,0h-21.074H640.48z"/>
<path style="fill:#FACFBC;" d="M1030.41,1194.237c6.387,0.954,13.042,1.522,20.04,1.522c91.452,0,145.176-67.143,154.358-79.604
	c0.939-1.274,1.417-1.982,1.417-1.982s-21.636-81.63-32.721-151.261c-65.267,68.417-123.73,140.529-170.087,224.279
	c-49.596-18.882-74.977-63.161-79.493-71.694c0.235,0.446,0.524,0.981,0.877,1.619
	C932.242,1130.576,965.884,1184.598,1030.41,1194.237z"/>
<path style="fill:#ED9E8A;" d="M1003.417,1187.191c46.357-83.75,104.82-155.861,170.087-224.279v-0.001
	c-0.939-5.902-1.802-11.714-2.57-17.387c-0.014-0.103-0.03-0.209-0.044-0.312c-0.029-0.213-0.052-0.418-0.08-0.63
	c-15.144,12.444-30.551,25.314-45.228,39.653c-15.934,15.566-122.897,16.666-140.943-0.38c-13.234-12.5-26.677-24.301-39.867-35.725
	c0.047,3.364,0.066,6.734,0.034,10.108c-0.11,11.477-0.662,22.973-1.523,34.231c-0.237,3.088-0.5,6.152-0.78,9.199
	c-0.457,4.979-0.969,9.893-1.524,14.724c-0.067,0.589-0.135,1.176-0.204,1.763c-1.226,10.439-2.642,20.473-4.133,29.844
	c-0.7,4.401-1.416,8.636-2.135,12.725c-0.932,5.304-1.867,10.318-2.782,15.002c-0.616,3.157-1.221,6.157-1.809,8.991
	c-3.752,18.106-6.739,29.328-6.739,29.328l0,0c0,0,0.027,0.055,0.046,0.094c0.013,0.025,0.013,0.024,0.032,0.064
	c0.033,0.067,0.092,0.184,0.148,0.292c0.033,0.067,0.061,0.121,0.103,0.203c0.08,0.155,0.178,0.343,0.286,0.551
	c0.041,0.079,0.086,0.161,0.131,0.248C928.44,1124.03,953.821,1168.308,1003.417,1187.191z"/>
<path style="fill:#FACFBC;" d="M1308.893,620.966c-1.264-0.144-2.528-0.182-3.784-0.042c-31.056,3.679-31.285,87.015-31.285,87.015
	s-0.502,3.685-1.081,9.461c-0.586-0.31-1.144-0.549-1.749-0.911c-18.45-11.01-3.807-112.704-0.595-133.537
	c-8.154-68.015-3.346-148.018-78.761-135.448c-90.98,17.059-181.961,119.411-261.568,0c-11.373-22.746-51.177-28.431-68.235,0
	c-23.698,56.875-7.936,125.588-28.368,183.114c0.097,32.065-1.282,80.756-9.955,97.632c0,0-0.001,0.001-0.002,0.002
	c-0.836-11.699-2.014-20.313-2.014-20.313s-0.229-83.336-31.285-87.015c-4.266-0.472-8.628,0.736-12.709,3.541
	c-13.074,8.986-23.19,34.855-17.395,78.521c6.839,52.089,30.544,86.771,48.355,88.709c10.337,1.227,14.329-12.995,15.475-30.045
	c2.074,26.447,5.64,49.179,11.444,64.394c16.843,44.147,61.328,80.458,109.391,122.085c13.19,11.424,26.633,23.224,39.867,35.725
	c18.046,17.046,125.009,15.945,140.943,0.38c14.677-14.339,30.084-27.209,45.228-39.653c42.918-35.266,83.66-67.034,99.2-118.537
	c2.997-9.933,5.082-24.052,6.47-40.857c2.4,4.505,5.753,7.057,10.378,6.508c17.811-1.939,41.516-36.62,48.355-88.709
	C1342.286,649.702,1325.676,622.873,1308.893,620.966z"/>
<path style="fill:#EFAD95;" d="M1241.826,441.979c-47.406-37.031-105.782,46.07-185.828,35.686
	c-65.026-8.436-129.997-60.818-167.215-54.885c-37.218,5.934-64.456,19.199-70.016,66.733
	c-4.889,41.794,14.167,111.335,14.167,111.335s0.481,12.472,0.534,29.77c20.432-57.526,4.669-126.239,28.368-183.114
	c17.059-28.431,56.862-22.746,68.235,0c79.607,119.411,170.588,17.059,261.568,0c75.415-12.569,70.607,67.433,78.761,135.448
	c0.369-2.391,0.595-3.777,0.595-3.777S1289.231,479.011,1241.826,441.979z"/>
<path style="fill:#AF804B;" d="M790.212,620.924c31.056,3.679,31.285,87.015,31.285,87.015s1.178,8.614,2.014,20.313
	c0.001,0,0.001-0.001,0.002-0.002c8.674-16.876,10.052-65.567,9.955-97.632c-0.053-17.297-0.534-29.77-0.534-29.77
	s-19.057-69.541-14.167-111.335c5.56-47.534,32.798-60.799,70.016-66.733c37.219-5.933,102.189,46.449,167.215,54.885
	c80.047,10.384,138.423-72.718,185.828-35.686c47.405,37.032,29.169,137.196,29.169,137.196s-0.226,1.386-0.595,3.777
	c-3.212,20.833-17.855,122.527,0.595,133.537c0.605,0.362,1.163,0.601,1.749,0.911c0.579-5.775,1.081-9.461,1.081-9.461
	s0.229-83.336,31.285-87.015c1.256-0.139,2.52-0.101,3.784,0.042c6.461-24.915,21.937-87.489,27.993-137.367
	c9.025-83.069-52.042-117.186-52.042-117.186s-9.603-33.646-31.069-50.435c-77.995-61.002-128.096-116.985-213.708-117.186
	c-99.367-0.233-104.487,49.552-189.446,77.139c-84.959,27.587-107.21,130.533-107.21,186.902c0,52.248,19.463,118.91,34.091,161.633
	C781.584,621.66,785.945,620.452,790.212,620.924z"/>
<path style="fill:#EFAD95;" d="M799.725,708.141c7.018-16.464-2.895-35.475-2.895-35.475s0.083-43.763-13.23-29.262
	c-10.77,11.73-11.54,59.697-0.206,84.891c8.65,19.226,20.063,21.308,20.063,21.308S791.505,727.423,799.725,708.141z"/>
<path style="fill:#EFAD95;" d="M1291.864,749.602c0,0,11.414-2.082,20.063-21.308c11.334-25.194,10.564-73.161-0.206-84.891
	c-13.313-14.501-13.23,29.262-13.23,29.262s-9.913,19.011-2.895,35.475C1303.816,727.423,1291.864,749.602,1291.864,749.602z"/>
<path style="fill:#ED9E8A;" d="M1108.343,878.57c-23.76,4.657-89.381,6.844-99.713-0.453c-5.747-4.059-13.163-12.652-19.222-20.341
	h-1.242c0,0,8.716,25.373,15.351,30.755c18.1,14.681,85.204,14.29,106.138-0.26c10.574-7.349,17.733-20.301,20.805-26.693
	C1124.259,869.274,1116.29,877.013,1108.343,878.57z"/>
<path style="fill:#FFFFFF;" d="M1008.63,878.118c10.332,7.297,75.952,5.109,99.713,0.453c7.947-1.557,15.916-9.297,22.117-16.993
	c6.852-8.505,11.539-16.958,11.539-16.958s-40.065,0.5-81.832,0.744c-34.201,0.2-81.833-2.512-81.833-2.512
	s4.813,6.98,11.074,14.925C995.467,865.466,1002.883,874.059,1008.63,878.118z"/>
<path style="fill:#9D2E18;" d="M882.209,1145.069c-0.305-0.674-1.35-0.258-1.196,0.443c11.443,52.091,56.927,91.291,105.978,109.179
	c4.144,1.512,8.305,2.925,12.482,4.126c59.569,17.129,123.386,2.168,173.958-32.201c28.963-19.682,54.465-44.852,71.371-75.709
	c1.856-3.388-2.667-6.274-5.01-3.237c-36.411,47.199-82.481,87.207-141.417,102.233c-35.48,9.046-71.734,7.255-105.297-4.01
	c-18.97-6.367-37.09-15.729-53.702-27.953C914.001,1199.271,895.124,1173.629,882.209,1145.069z"/>
<path style="fill:#9D2E18;" d="M921.263,1131.789l-0.642,0.27c15.454,37.2,53.783,63.13,91.515,73.542
	c2.743,0.757,5.509,1.44,8.294,2.053c41.544,9.145,87.325,2.393,125.022-16.817c20.165-10.276,40.804-24.99,51.497-45.474
	c0.311-0.596-0.418-1.151-0.918-0.708c-14.731,13.024-29.172,25.812-46.577,35.285c-18.214,9.913-38.025,16.735-58.426,20.4
	c-21.611,3.883-43.785,3.918-65.175-0.037c-20.348-3.762-39.986-11.131-57.734-22.336
	C949.122,1165.972,934.393,1149.814,921.263,1131.789z"/>
<path style="fill:#AF804B;" d="M1202.888,605.042c30.984,2.777,44.279,11.792,47.717,5.9c3.438-5.892-20.438-33.77-49.838-41.477
	c-23.632-6.195-75.886-10.377-78.015-8.641c-5.305,4.325-2.128,38.949,1.007,44.993
	C1124.633,607.5,1175.992,602.631,1202.888,605.042z"/>
<path style="fill:#AF804B;" d="M1112.391,596.026c1.095,3.135,2.554,8.3,5.696,9.427l0.529-0.352
	c0.32-1.629-0.075-3.028-0.568-4.566c-0.619-1.931-1.23-3.844-1.669-5.843c-0.788-3.59-0.857-7.654-0.73-11.364
	c0.13-3.8,0.087-7.55,0.519-11.343c0.23-2.021,0.079-4.036,0.117-6.065c0.036-1.92,0.063-3.747-0.099-5.652
	c-0.074-0.882-1.219-1.483-1.837-0.786c-5.528,6.237-6.893,16.2-5.464,24.416C1109.629,588.169,1110.99,592.011,1112.391,596.026z"
	/>
<path style="fill:#AF804B;" d="M1108.791,600.357c0.335,0.5,1.141-0.013,0.876-0.592c-1.13-2.46-2.862-10.992-3.157-16.455
	c-0.144-2.675-0.084-5.428,0.108-8.108c0.107-1.493,0.463-2.972,0.107-4.427c-0.316-1.289-0.602-2.583-0.839-3.895l-0.613-0.262
	c-0.853,0.944-1.672,1.923-2.409,2.982c-0.999,1.436-1.189,2.992-1.392,4.733c-0.378,3.238-0.477,6.454,0.169,9.607
	C1103.658,593.785,1107.136,597.89,1108.791,600.357z"/>
<path style="fill:#ED9E8A;" d="M1205.285,636.705c7.744,4.872,12.751,12.518,15.817,18.89l0.005,0.001
	c0,0-2.776-13.035-11.848-22.669c-7.672-8.147-17.523-13.678-43.994-11.071c-24.367,2.4-51.959,35.195-51.96,35.197
	c6.333-5.553,17.941-12.983,30.213-17.865C1166.792,629.93,1198.727,632.579,1205.285,636.705z"/>
<path style="fill:#FFFFFF;" d="M1187.958,650.404c3.415,4.388,5.535,9.752,5.715,15.52c0.272,10.234-8.22,20.251-13.882,23.028
	l-1.089,0.436c12.684,1.198,24.337-1.741,26.893-3.161c6.24-3.466,13.981-13.936,15.342-22.689
	c-8.813-5.681-24.019-11.204-30.497-12.659C1189.628,650.696,1188.784,650.564,1187.958,650.404z"/>
<path style="fill:#FFFFFF;" d="M1140.759,665.271c-0.172-5.982,1.792-11.458,5.19-15.797c-0.913,0.094-1.828,0.174-2.739,0.278
	c-9.438,1.084-21.918,9.062-29.092,12.706c-0.005,0.006-0.034,0.037-0.034,0.037s8.966,13.205,16.422,17.199
	c1.827,0.979,9.981,4.631,21.087,6.264l-0.272-0.163C1144.174,680.67,1140.922,673.491,1140.759,665.271z"/>
<path style="fill:#52A9DF;" d="M1187.958,650.404c-12.994-2.524-27.615-2.412-42.009-0.93c-3.398,4.339-5.362,9.815-5.19,15.797
	c0.163,8.22,3.416,15.399,10.561,20.523l0.272,0.163c8.493,1.307,18.237,2.559,27.111,3.43l1.089-0.436
	c5.661-2.776,14.154-12.793,13.882-23.028C1193.493,660.156,1191.374,654.791,1187.958,650.404z"/>
<path style="fill:#583636;" d="M1170.494,659.006c0-0.681,0.111-1.331,0.271-1.962c-1.209-0.438-2.492-0.723-3.847-0.737
	c-6.161-0.078-11.161,4.778-10.996,10.889c0.135,6.086,5.399,11.123,11.486,11.212c6.352,0.105,11.265-4.776,11.084-10.923
	c-0.004-0.165-0.05-0.319-0.062-0.482C1174.042,666.966,1170.494,663.403,1170.494,659.006z"/>
<path style="fill:#583636;" d="M1221.103,655.594c-3.066-6.371-8.074-14.018-15.817-18.89c-6.558-4.126-38.494-6.775-61.766,2.483
	c-12.272,4.882-23.88,12.311-30.213,17.865c-3.734,3.274-5.642,5.898-4.754,6.958c0.594,0.709,2.656-0.076,5.565-1.554
	c7.174-3.643,19.654-11.621,29.092-12.706c0.91-0.104,1.826-0.184,2.739-0.278c14.394-1.482,29.016-1.594,42.009,0.93
	c0.826,0.161,1.67,0.293,2.482,0.475c6.479,1.455,21.685,6.978,30.497,12.659c1.699,1.095,3.186,2.196,4.299,3.275
	C1225.237,666.812,1224.094,661.811,1221.103,655.594z"/>
<path style="fill:#FFFFFF;" d="M1186.5,659.006c0-4.42-3.583-8.003-8.003-8.003c-3.739,0-6.853,2.575-7.732,6.041
	c-0.16,0.631-0.271,1.281-0.271,1.962c0,4.397,3.548,7.959,7.936,7.996c0.022,0,0.044,0.007,0.066,0.007
	C1182.917,667.009,1186.5,663.426,1186.5,659.006z"/>
<path style="fill:#AF804B;" d="M974.484,605.816c3.135-6.044,6.312-40.668,1.007-44.993c-2.129-1.736-54.383,2.447-78.014,8.641
	c-29.4,7.707-53.276,35.585-49.838,41.477c3.438,5.892,16.733-3.123,47.717-5.9C922.252,602.631,973.611,607.5,974.484,605.816z"/>
<path style="fill:#AF804B;" d="M980.156,605.453c3.142-1.128,4.601-6.293,5.696-9.427c1.402-4.014,2.763-7.857,3.506-12.128
	c1.429-8.216,0.064-18.179-5.464-24.416c-0.618-0.697-1.763-0.096-1.837,0.786c-0.161,1.905-0.135,3.732-0.098,5.652
	c0.038,2.029-0.113,4.044,0.117,6.065c0.433,3.793,0.389,7.542,0.519,11.343c0.126,3.71,0.058,7.774-0.73,11.364
	c-0.439,1.999-1.05,3.912-1.668,5.843c-0.493,1.539-0.889,2.938-0.569,4.566L980.156,605.453z"/>
<path style="fill:#AF804B;" d="M991.733,583.31c-0.295,5.463-2.027,13.995-3.157,16.455c-0.265,0.578,0.54,1.092,0.876,0.592
	c1.655-2.467,5.133-6.572,7.149-16.417c0.646-3.153,0.547-6.368,0.169-9.607c-0.203-1.74-0.393-3.296-1.392-4.733
	c-0.737-1.059-1.556-2.039-2.409-2.982l-0.612,0.262c-0.237,1.312-0.523,2.606-0.839,3.895c-0.356,1.455,0,2.935,0.107,4.427
	C991.818,577.882,991.877,580.635,991.733,583.31z"/>
<path style="fill:#ED9E8A;" d="M901.241,634.007c7.17-4.511,42.084-7.407,67.528,2.715c13.417,5.337,26.106,13.458,33.03,19.529
	c-0.011-0.013-30.17-35.855-56.806-38.478c-28.94-2.851-39.71,3.198-48.097,12.103c-9.918,10.532-12.953,24.784-12.953,24.784
	l0.005-0.001C887.3,647.694,892.776,639.333,901.241,634.007z"/>
<path style="fill:#FFFFFF;" d="M913.936,665.952c0.197-6.307,2.515-12.171,6.249-16.968c-0.904,0.176-1.827,0.32-2.715,0.52
	c-7.083,1.59-23.707,7.628-33.342,13.839c1.487,9.568,9.951,21.015,16.774,24.805c2.794,1.552,15.534,4.765,29.401,3.455
	l-1.19-0.476C922.923,688.092,913.639,677.141,913.936,665.952z"/>
<path style="fill:#FFFFFF;" d="M966.113,647.967c3.715,4.744,5.862,10.73,5.674,17.27c-0.178,8.987-3.734,16.836-11.547,22.438
	l-0.297,0.179c12.142-1.786,21.057-5.778,23.054-6.848c8.151-4.367,17.953-18.804,17.953-18.804s-0.032-0.034-0.036-0.04
	c-7.843-3.983-21.487-12.706-31.807-13.891C968.111,648.157,967.111,648.07,966.113,647.967z"/>
<path style="fill:#52A9DF;" d="M966.113,647.967c-15.736-1.621-31.723-1.744-45.927,1.017c-3.734,4.797-6.052,10.661-6.249,16.968
	c-0.297,11.189,8.987,22.14,15.177,25.176l1.19,0.476c9.701-0.952,20.355-2.321,29.639-3.75l0.297-0.179
	c7.813-5.602,11.369-13.451,11.547-22.438C971.975,658.697,969.828,652.711,966.113,647.967z"/>
<path style="fill:#583636;" d="M946.465,657.564c0-0.557,0.064-1.098,0.164-1.625c-1.098-0.307-2.237-0.517-3.441-0.502
	c-6.863,0.075-12.475,5.581-12.653,12.221c-0.198,6.721,5.174,12.057,12.117,11.942c6.656-0.097,12.41-5.605,12.558-12.258
	c0.01-0.356-0.059-0.689-0.08-1.037C950.337,666.258,946.465,662.367,946.465,657.564z"/>
<path style="fill:#583636;" d="M920.185,648.984c14.205-2.76,30.191-2.638,45.927-1.017c0.998,0.103,1.999,0.19,2.994,0.304
	c10.319,1.185,23.963,9.908,31.807,13.891c3.18,1.615,5.434,2.473,6.083,1.698c0.971-1.159-1.115-4.029-5.198-7.609
	c-6.925-6.071-19.614-14.192-33.03-19.529c-25.443-10.122-60.358-7.226-67.528-2.715c-8.466,5.326-13.941,13.687-17.293,20.652
	c-3.27,6.797-4.519,12.264-4.519,12.264c1.217-1.18,2.842-2.382,4.7-3.58c9.635-6.211,26.259-12.25,33.342-13.839
	C918.359,649.304,919.282,649.16,920.185,648.984z"/>
<path style="fill:#FFFFFF;" d="M963.964,657.564c0-4.832-3.917-8.749-8.749-8.749c-4.276,0-7.822,3.071-8.586,7.124
	c-0.099,0.528-0.164,1.069-0.164,1.625c0,4.803,3.872,8.694,8.664,8.741c0.029,0,0.056,0.008,0.085,0.008
	C960.046,666.313,963.964,662.396,963.964,657.564z"/>
<polygon style="fill:#ED9E8A;" points="1097.191,796.238 1097.191,788.545 1032.152,788.782 1059.806,807.531 "/>
<polygon style="fill:#ED9E8A;" points="1071.688,659.006 1067.215,718.766 1097.251,778.525 "/>
</svg>
